<svg height="16pt" viewBox="0 0 15.99999947 16.0000005" width="15.999999pt" xmlns="http://www.w3.org/2000/svg"><path d="m0 15.397332s.30374938-.96874.30374938-.96874.30374938-.965439.30374938-.965439.30374944-.95873.30374944-.95873.3037493-.9485205.3037493-.9485205.3037495-.9347325.3037495-.9347325.3037494-.917314.3037494-.917314.3037493-.89623.3037493-.89623.3037493-.871478.3037493-.871478.3037496-.8430703.3037496-.8430703.3037494-.8110507.3037494-.8110507.3037493-.775487.3037493-.775487.3037495-.736472.3037495-.736472.3037494-.694123.3037494-.694123.3037493-.6485861.3037493-.6485861.3037495-.6000269.3037495-.6000269.303749-.5486378.303749-.5486378.3037497-.4946322.3037497-.4946322.3037495-.4382441.3037495-.4382441.3037491-.379727.3037491-.379727.3037497-.3193516.3037497-.3193516.3037494-.2574035.3037494-.2574035.3037491-.19418143.3037491-.19418143.3037495-.12999451.3037495-.12999451.3037497-.06515986.3037497-.06515986h.303749s.3037496.06515986.3037496.06515986.3037497.12999451.3037497.12999451.303749.19418143.303749.19418143.303749.2574035.303749.2574035.30375.3193516.30375.3193516.303749.379727.303749.379727.303749.4382441.303749.4382441.30375.4946322.30375.4946322.303749.5486378.303749.5486378.303749.6000269.303749.6000269.3037505.6485861.3037505.6485861.3037495.694123.3037495.694123.303749.736472.303749.736472.30375.775487.30375.775487.303749.8110507.303749.8110507.303749.8430703.303749.8430703.30375.871478.30375.871478.303749.89623.303749.89623.303749.917314.303749.917314.30375.9347325.30375.9347325.303749.9485205.303749.9485205.303749.95873.303749.95873.30375.965439.30375.965439.303749.96874.303749.96874" fill="#ff4136" transform="translate(1.116279 .602669)"/><g fill="#208f2d" stroke="#000" stroke-width=".6"><path d="m0 0h2.232558v6.185812h-2.232558z" transform="translate(0 9.814189)"/><path d="m0 0h2.232558v12.172467h-2.232558z" transform="translate(2.48062 3.827534)"/><path d="m0 0h2.232558v15.116723h-2.232558z" transform="translate(4.96124 .883277)"/><path d="m0 0h2.232558v16h-2.232558z" transform="translate(7.44186)"/><path d="m0 0h2.232558v9.130069h-2.232558z" transform="translate(9.92248 6.869932)"/><path d="m0 0h2.232558v2.1619947h-2.232558z" transform="translate(12.4031 13.838006)"/></g><path d="m0 15.397332s.30374938-.96874.30374938-.96874.30374938-.965439.30374938-.965439.30374944-.95873.30374944-.95873.3037493-.9485205.3037493-.9485205.3037495-.9347325.3037495-.9347325.3037494-.917314.3037494-.917314.3037493-.89623.3037493-.89623.3037493-.871478.3037493-.871478.3037496-.8430703.3037496-.8430703.3037494-.8110507.3037494-.8110507.3037493-.775487.3037493-.775487.3037495-.736472.3037495-.736472.3037494-.694123.3037494-.694123.3037493-.6485861.3037493-.6485861.3037495-.6000269.3037495-.6000269.303749-.5486378.303749-.5486378.3037497-.4946322.3037497-.4946322.3037495-.4382441.3037495-.4382441.3037491-.379727.3037491-.379727.3037497-.3193516.3037497-.3193516.3037494-.2574035.3037494-.2574035.3037491-.19418143.3037491-.19418143.3037495-.12999451.3037495-.12999451.3037497-.06515986.3037497-.06515986h.303749s.3037496.06515986.3037496.06515986.3037497.12999451.3037497.12999451.303749.19418143.303749.19418143.303749.2574035.303749.2574035.30375.3193516.30375.3193516.303749.379727.303749.379727.303749.4382441.303749.4382441.30375.4946322.30375.4946322.303749.5486378.303749.5486378.303749.6000269.303749.6000269.3037505.6485861.3037505.6485861.3037495.694123.3037495.694123.303749.736472.303749.736472.30375.775487.30375.775487.303749.8110507.303749.8110507.303749.8430703.303749.8430703.30375.871478.30375.871478.303749.89623.303749.89623.303749.917314.303749.917314.30375.9347325.30375.9347325.303749.9485205.303749.9485205.303749.95873.303749.95873.30375.965439.30375.965439.303749.96874.303749.96874" fill="none" stroke="#ff4136" transform="translate(1.116279 .602669)"/><path d="m0 0h2.232558v6.185812h-2.232558z" fill="#208f2d" stroke="#000" stroke-width=".6" transform="translate(0 9.814189)"/><path d="m0 0h2.232558v12.172467h-2.232558z" fill="#208f2d" stroke="#000" stroke-width=".6" transform="translate(2.48062 3.827534)"/><path d="m0 0h2.232558v15.116723h-2.232558z" fill="#208f2d" stroke="#000" stroke-width=".6" transform="translate(4.96124 .883277)"/><path d="m0 0h2.232558v16h-2.232558z" fill="#208f2d" stroke="#000" stroke-width=".6" transform="translate(7.44186)"/><path d="m0 0h2.232558v9.130069h-2.232558z" fill="#208f2d" stroke="#000" stroke-width=".6" transform="translate(9.92248 6.869932)"/><path d="m0 0h2.232558v2.1619947h-2.232558z" fill="#208f2d" stroke="#000" stroke-width=".6" transform="translate(12.4031 13.838006)"/></svg>