<svg class="typst-doc" viewBox="0 0 131.60874982452165 141.73250002015413" width="131.60874982452165pt" height="141.73250002015413pt" xmlns="http://www.w3.org/2000/svg" xmlns:xlink="http://www.w3.org/1999/xlink" xmlns:h5="http://www.w3.org/1999/xhtml">
    <g>
        <g transform="translate(0 0)">
            <path class="typst-shape" fill="#000000" d="M 0 0 L 0 141.7325 L 131.60875 141.7325 L 131.60875 0 Z "/>
        </g>
        <g transform="translate(0 0)">
            <g class="typst-group">
                <g>
                    <g transform="translate(0 62.24925084970762)">
                        <path class="typst-shape" fill="#005dae" stroke="#000000" stroke-width="1" stroke-linecap="butt" stroke-linejoin="miter" stroke-miterlimit="4" d="M 0 0 C 0 0 20.2475 0 20.2475 0 C 20.2475 0 20.2475 79.483246 20.2475 79.483246 C 20.2475 79.483246 0 79.483246 0 79.483246 C 0 79.483246 0 0 0 0 C 0 0 0 0 0 0 Z "/>
                    </g>
                    <g transform="translate(20.247499973003347 48.70547542904124)">
                        <path class="typst-shape" fill="#005dae" stroke="#000000" stroke-width="1" stroke-linecap="butt" stroke-linejoin="miter" stroke-miterlimit="4" d="M 0 0 C 0 0 20.2475 0 20.2475 0 C 20.2475 0 20.2475 93.02702 20.2475 93.02702 C 20.2475 93.02702 0 93.02702 0 93.02702 C 0 93.02702 0 0 0 0 C 0 0 0 0 0 0 Z "/>
                    </g>
                    <g transform="translate(40.49499994600667 0)">
                        <path class="typst-shape" fill="#005dae" stroke="#000000" stroke-width="1" stroke-linecap="butt" stroke-linejoin="miter" stroke-miterlimit="4" d="M 0 0 C 0 0 20.2475 0 20.2475 0 C 20.2475 0 20.2475 141.7325 20.2475 141.7325 C 20.2475 141.7325 0 141.7325 0 141.7325 C 0 141.7325 0 0 0 0 C 0 0 0 0 0 0 Z "/>
                    </g>
                    <g transform="translate(60.74249991901001 9.428526709108679)">
                        <path class="typst-shape" fill="#005dae" stroke="#000000" stroke-width="1" stroke-linecap="butt" stroke-linejoin="miter" stroke-miterlimit="4" d="M 0 0 C 0 0 20.2475 0 20.2475 0 C 20.2475 0 20.2475 132.30397 20.2475 132.30397 C 20.2475 132.30397 0 132.30397 0 132.30397 C 0 132.30397 0 0 0 0 C 0 0 0 0 0 0 Z "/>
                    </g>
                    <g transform="translate(80.98999989201333 54.1229855973078)">
                        <path class="typst-shape" fill="#005dae" stroke="#000000" stroke-width="1" stroke-linecap="butt" stroke-linejoin="miter" stroke-miterlimit="4" d="M 0 0 C 0 0 20.2475 0 20.2475 0 C 20.2475 0 20.2475 87.60951 20.2475 87.60951 C 20.2475 87.60951 0 87.60951 0 87.60951 C 0 87.60951 0 0 0 0 C 0 0 0 0 0 0 Z "/>
                    </g>
                    <g transform="translate(101.23749986501667 127.25937286890637)">
                        <path class="typst-shape" fill="#005dae" stroke="#000000" stroke-width="1" stroke-linecap="butt" stroke-linejoin="miter" stroke-miterlimit="4" d="M 0 0 C 0 0 20.2475 0 20.2475 0 C 20.2475 0 20.2475 14.473127 20.2475 14.473127 C 20.2475 14.473127 0 14.473127 0 14.473127 C 0 14.473127 0 0 0 0 C 0 0 0 0 0 0 Z "/>
                    </g>
                    <g transform="translate(0 62.24925084970762)">
                        <path class="typst-shape" fill="#005dae" stroke="#000000" stroke-width="1" stroke-linecap="butt" stroke-linejoin="miter" stroke-miterlimit="4" d="M 0 0 C 0 0 20.2475 0 20.2475 0 C 20.2475 0 20.2475 79.483246 20.2475 79.483246 C 20.2475 79.483246 0 79.483246 0 79.483246 C 0 79.483246 0 0 0 0 C 0 0 0 0 0 0 Z "/>
                    </g>
                    <g transform="translate(20.247499973003347 48.70547542904124)">
                        <path class="typst-shape" fill="#005dae" stroke="#000000" stroke-width="1" stroke-linecap="butt" stroke-linejoin="miter" stroke-miterlimit="4" d="M 0 0 C 0 0 20.2475 0 20.2475 0 C 20.2475 0 20.2475 93.02702 20.2475 93.02702 C 20.2475 93.02702 0 93.02702 0 93.02702 C 0 93.02702 0 0 0 0 C 0 0 0 0 0 0 Z "/>
                    </g>
                    <g transform="translate(40.49499994600667 0)">
                        <path class="typst-shape" fill="#005dae" stroke="#000000" stroke-width="1" stroke-linecap="butt" stroke-linejoin="miter" stroke-miterlimit="4" d="M 0 0 C 0 0 20.2475 0 20.2475 0 C 20.2475 0 20.2475 141.7325 20.2475 141.7325 C 20.2475 141.7325 0 141.7325 0 141.7325 C 0 141.7325 0 0 0 0 C 0 0 0 0 0 0 Z "/>
                    </g>
                    <g transform="translate(60.74249991901001 9.428526709108679)">
                        <path class="typst-shape" fill="#005dae" stroke="#000000" stroke-width="1" stroke-linecap="butt" stroke-linejoin="miter" stroke-miterlimit="4" d="M 0 0 C 0 0 20.2475 0 20.2475 0 C 20.2475 0 20.2475 132.30397 20.2475 132.30397 C 20.2475 132.30397 0 132.30397 0 132.30397 C 0 132.30397 0 0 0 0 C 0 0 0 0 0 0 Z "/>
                    </g>
                    <g transform="translate(80.98999989201333 54.1229855973078)">
                        <path class="typst-shape" fill="#005dae" stroke="#000000" stroke-width="1" stroke-linecap="butt" stroke-linejoin="miter" stroke-miterlimit="4" d="M 0 0 C 0 0 20.2475 0 20.2475 0 C 20.2475 0 20.2475 87.60951 20.2475 87.60951 C 20.2475 87.60951 0 87.60951 0 87.60951 C 0 87.60951 0 0 0 0 C 0 0 0 0 0 0 Z "/>
                    </g>
                    <g transform="translate(101.23749986501667 127.25937286890637)">
                        <path class="typst-shape" fill="#005dae" stroke="#000000" stroke-width="1" stroke-linecap="butt" stroke-linejoin="miter" stroke-miterlimit="4" d="M 0 0 C 0 0 20.2475 0 20.2475 0 C 20.2475 0 20.2475 14.473127 20.2475 14.473127 C 20.2475 14.473127 0 14.473127 0 14.473127 C 0 14.473127 0 0 0 0 C 0 0 0 0 0 0 Z "/>
                    </g>
                    <g transform="translate(10.123749986501675 0.07500516581003096)">
                        <path class="typst-shape" fill="none" stroke="#ff4136" stroke-width="1" stroke-linecap="butt" stroke-linejoin="miter" stroke-miterlimit="4" d="M 0 141.6575 C 0 141.6575 2.4792857 132.74495 2.4792857 132.74495 C 2.4792857 132.74495 4.9585714 123.86279 4.9585714 123.86279 C 4.9585714 123.86279 7.437857 115.04235 7.437857 115.04235 C 7.437857 115.04235 9.917143 106.31584 9.917143 106.31584 C 9.917143 106.31584 12.396428 97.71617 12.396428 97.71617 C 12.396428 97.71617 14.875714 89.27677 14.875714 89.27677 C 14.875714 89.27677 17.355 81.03133 17.355 81.03133 C 17.355 81.03133 19.834286 73.01361 19.834286 73.01361 C 19.834286 73.01361 22.313572 65.257256 22.313572 65.257256 C 22.313572 65.257256 24.792856 57.79548 24.792856 57.79548 C 24.792856 57.79548 27.272142 50.660896 27.272142 50.660896 C 27.272142 50.660896 29.751429 43.88526 29.751429 43.88526 C 29.751429 43.88526 32.230713 37.499233 32.230713 37.499233 C 32.230713 37.499233 34.71 31.532156 34.71 31.532156 C 34.71 31.532156 37.189285 26.01183 37.189285 26.01183 C 37.189285 26.01183 39.66857 20.964289 39.66857 20.964289 C 39.66857 20.964289 42.147858 16.413607 42.147858 16.413607 C 42.147858 16.413607 44.627144 12.381703 44.627144 12.381703 C 44.627144 12.381703 47.10643 8.8881645 47.10643 8.8881645 C 47.10643 8.8881645 49.585712 5.9500875 49.585712 5.9500875 C 49.585712 5.9500875 52.065 3.5819411 52.065 3.5819411 C 52.065 3.5819411 54.544285 1.795446 54.544285 1.795446 C 54.544285 1.795446 57.02357 0.5994794 57.02357 0.5994794 C 57.02357 0.5994794 59.502857 0 59.502857 0 C 59.502857 0 61.982143 0 61.982143 0 C 61.982143 0 64.461426 0.5994794 64.461426 0.5994794 C 64.461426 0.5994794 66.94071 1.795446 66.94071 1.795446 C 66.94071 1.795446 69.42 3.5819411 69.42 3.5819411 C 69.42 3.5819411 71.899284 5.9500875 71.899284 5.9500875 C 71.899284 5.9500875 74.37857 8.8881645 74.37857 8.8881645 C 74.37857 8.8881645 76.85786 12.381703 76.85786 12.381703 C 76.85786 12.381703 79.33714 16.413607 79.33714 16.413607 C 79.33714 16.413607 81.81643 20.964289 81.81643 20.964289 C 81.81643 20.964289 84.295715 26.01183 84.295715 26.01183 C 84.295715 26.01183 86.775 31.532156 86.775 31.532156 C 86.775 31.532156 89.25429 37.499233 89.25429 37.499233 C 89.25429 37.499233 91.733574 43.88526 91.733574 43.88526 C 91.733574 43.88526 94.21286 50.660896 94.21286 50.660896 C 94.21286 50.660896 96.69215 57.79548 96.69215 57.79548 C 96.69215 57.79548 99.171425 65.257256 99.171425 65.257256 C 99.171425 65.257256 101.65071 73.01361 101.65071 73.01361 C 101.65071 73.01361 104.13 81.03133 104.13 81.03133 C 104.13 81.03133 106.60928 89.27677 106.60928 89.27677 C 106.60928 89.27677 109.08857 97.71617 109.08857 97.71617 C 109.08857 97.71617 111.567856 106.31584 111.567856 106.31584 C 111.567856 106.31584 114.04714 115.04235 114.04714 115.04235 C 114.04714 115.04235 116.52643 123.86279 116.52643 123.86279 C 116.52643 123.86279 119.005714 132.74495 119.005714 132.74495 C 119.005714 132.74495 121.485 141.6575 121.485 141.6575 "/>
                    </g>
                    <g transform="translate(0 0)">
                        <g class="typst-group">
                            <g>
                                <g transform="translate(6.6322995909321705 48.71822552782981)">
                                    <g class="typst-group">
                                        <g>
                                            <g transform="translate(0 0)">
                                                <g class="typst-group">
                                                    <g>
                                                        <g transform="translate(0 0)">
                                                            <path class="typst-shape" fill="#3d9970" stroke="#b10dc9" stroke-width="1" stroke-linecap="butt" stroke-linejoin="miter" stroke-miterlimit="4" d="M 36.973125 42.719337 C 46.35781 42.719337 53.981026 50.34255 53.981026 59.727238 C 53.981026 59.727238 53.981026 59.727238 53.981026 59.727238 C 53.981026 69.11192 46.35781 76.73514 36.973125 76.73514 C 36.973125 76.73514 36.973125 76.73514 36.973125 76.73514 C 27.588438 76.73514 19.965225 69.11192 19.965225 59.727238 C 19.965225 59.727238 19.965225 59.727238 19.965225 59.727238 C 19.965225 50.34255 27.588438 42.719337 36.973125 42.719337 "/>
                                                        </g>
                                                        <g transform="translate(0 0)">
                                                            <g class="typst-group">
                                                                <g>
                                                                    <g transform="translate(0 0)">
                                                                        <path class="typst-shape" fill="#3d9970" stroke="#b10dc9" stroke-width="1" stroke-linecap="butt" stroke-linejoin="miter" stroke-miterlimit="4" d="M 61.175907 8.154184 C 70.56059 8.154184 78.18381 15.777397 78.18381 25.162085 C 78.18381 25.162085 78.18381 25.162085 78.18381 25.162085 C 78.18381 34.546772 70.56059 42.169983 61.175907 42.169983 C 61.175907 42.169983 61.175907 42.169983 61.175907 42.169983 C 51.791218 42.169983 44.168007 34.546772 44.168007 25.162085 C 44.168007 25.162085 44.168007 25.162085 44.168007 25.162085 C 44.168007 15.777397 51.791218 8.154184 61.175907 8.154184 "/>
                                                                    </g>
                                                                </g>
                                                            </g>
                                                        </g>
                                                        <g transform="translate(0 0)">
                                                            <g class="typst-group">
                                                                <g>
                                                                    <g transform="translate(0 0)">
                                                                        <path class="typst-shape" fill="#3d9970" stroke="#b10dc9" stroke-width="1" stroke-linecap="butt" stroke-linejoin="miter" stroke-miterlimit="4" d="M 79.00882 46.396984 C 88.3935 46.396984 96.016716 54.020195 96.016716 63.404884 C 96.016716 63.404884 96.016716 63.404884 96.016716 63.404884 C 96.016716 72.78957 88.3935 80.41278 79.00882 80.41278 C 79.00882 80.41278 79.00882 80.41278 79.00882 80.41278 C 69.62413 80.41278 62.000916 72.78957 62.000916 63.404884 C 62.000916 63.404884 62.000916 63.404884 62.000916 63.404884 C 62.000916 54.020195 69.62413 46.396984 79.00882 46.396984 "/>
                                                                    </g>
                                                                </g>
                                                            </g>
                                                        </g>
                                                        <g transform="translate(0 0)">
                                                            <g class="typst-group">
                                                                <g>
                                                                    <g transform="translate(0 0)">
                                                                        <path class="typst-shape" fill="none" stroke="#01ff70" stroke-width="1" stroke-linecap="butt" stroke-linejoin="miter" stroke-miterlimit="4" stroke-dashoffset="0" stroke-dasharray="3 3" d="M 21.259874 66.23588 C -7.086625 74.91407 -7.086625 44.540405 21.259874 53.218594 "/>
                                                                    </g>
                                                                </g>
                                                            </g>
                                                        </g>
                                                        <g transform="translate(0 0)">
                                                            <g class="typst-group">
                                                                <g>
                                                                    <g transform="translate(0 0)">
                                                                        <path class="typst-shape" fill="#01ff70" stroke="#01ff70" stroke-width="1" stroke-linecap="butt" stroke-linejoin="miter" stroke-miterlimit="4" d="M 17.194164 51.973892 C 17.194164 51.973892 17.692045 50.347607 17.692045 50.347607 C 17.692045 50.347607 21.259874 53.218594 21.259874 53.218594 C 21.259874 53.218594 16.696283 53.600174 16.696283 53.600174 C 16.696283 53.600174 16.696283 53.600174 16.696283 53.600174 C 16.696283 53.600174 17.194164 51.973892 17.194164 51.973892 C 17.194164 51.973892 17.194164 51.973892 17.194164 51.973892 Z "/>
                                                                    </g>
                                                                </g>
                                                            </g>
                                                        </g>
                                                        <g transform="translate(0 0)">
                                                            <g class="typst-group">
                                                                <g>
                                                                    <g transform="translate(0 0)">
                                                                        <path class="typst-shape" fill="none" stroke="#01ff70" stroke-width="1" stroke-linecap="butt" stroke-linejoin="miter" stroke-miterlimit="4" stroke-dashoffset="0" stroke-dasharray="3 3" d="M 28.829086 44.79595 C 21.820625 31.946634 29.88822 20.424917 44.35966 22.615992 "/>
                                                                    </g>
                                                                </g>
                                                            </g>
                                                        </g>
                                                        <g transform="translate(0 0)">
                                                            <g class="typst-group">
                                                                <g>
                                                                    <g transform="translate(0 0)">
                                                                        <path class="typst-shape" fill="#01ff70" stroke="#01ff70" stroke-width="1" stroke-linecap="butt" stroke-linejoin="miter" stroke-miterlimit="4" d="M 40.1556 21.979467 C 40.1556 21.979467 40.41021 20.297844 40.41021 20.297844 C 40.41021 20.297844 44.35966 22.615992 44.35966 22.615992 C 44.35966 22.615992 39.900993 23.661093 39.900993 23.661093 C 39.900993 23.661093 39.900993 23.661093 39.900993 23.661093 C 39.900993 23.661093 40.1556 21.979467 40.1556 21.979467 C 40.1556 21.979467 40.1556 21.979467 40.1556 21.979467 Z "/>
                                                                    </g>
                                                                </g>
                                                            </g>
                                                        </g>
                                                        <g transform="translate(0 0)">
                                                            <g class="typst-group">
                                                                <g>
                                                                    <g transform="translate(0 0)">
                                                                        <path class="typst-shape" fill="none" stroke="#01ff70" stroke-width="1" stroke-linecap="butt" stroke-linejoin="miter" stroke-miterlimit="4" stroke-dashoffset="0" stroke-dasharray="3 3" d="M 54.667263 9.448833 C 45.989075 -18.897667 76.36274 -18.897667 67.68455 9.448833 "/>
                                                                    </g>
                                                                </g>
                                                            </g>
                                                        </g>
                                                        <g transform="translate(0 0)">
                                                            <g class="typst-group">
                                                                <g>
                                                                    <g transform="translate(0 0)">
                                                                        <path class="typst-shape" fill="#01ff70" stroke="#01ff70" stroke-width="1" stroke-linecap="butt" stroke-linejoin="miter" stroke-miterlimit="4" d="M 68.92925 5.3831224 C 68.92925 5.3831224 70.555534 5.8810043 70.555534 5.8810043 C 70.555534 5.8810043 67.68455 9.448833 67.68455 9.448833 C 67.68455 9.448833 67.30297 4.885241 67.30297 4.885241 C 67.30297 4.885241 67.30297 4.885241 67.30297 4.885241 C 67.30297 4.885241 68.92925 5.3831224 68.92925 5.3831224 C 68.92925 5.3831224 68.92925 5.3831224 68.92925 5.3831224 Z "/>
                                                                    </g>
                                                                </g>
                                                            </g>
                                                        </g>
                                                        <g transform="translate(0 0)">
                                                            <g class="typst-group">
                                                                <g>
                                                                    <g transform="translate(0 0)">
                                                                        <path class="typst-shape" fill="none" stroke="#01ff70" stroke-width="1" stroke-linecap="butt" stroke-linejoin="miter" stroke-miterlimit="4" stroke-dashoffset="0" stroke-dasharray="3 3" d="M 78.178795 25.574781 C 92.81086 25.929935 98.755165 38.677536 89.62192 50.114635 "/>
                                                                    </g>
                                                                </g>
                                                            </g>
                                                        </g>
                                                        <g transform="translate(0 0)">
                                                            <g class="typst-group">
                                                                <g>
                                                                    <g transform="translate(0 0)">
                                                                        <path class="typst-shape" fill="#01ff70" stroke="#01ff70" stroke-width="1" stroke-linecap="butt" stroke-linejoin="miter" stroke-miterlimit="4" d="M 92.27519 46.792072 C 92.27519 46.792072 93.60422 47.853382 93.60422 47.853382 C 93.60422 47.853382 89.62192 50.114635 89.62192 50.114635 C 89.62192 50.114635 90.94617 45.730762 90.94617 45.730762 C 90.94617 45.730762 90.94617 45.730762 90.94617 45.730762 C 90.94617 45.730762 92.27519 46.792072 92.27519 46.792072 C 92.27519 46.792072 92.27519 46.792072 92.27519 46.792072 Z "/>
                                                                    </g>
                                                                </g>
                                                            </g>
                                                        </g>
                                                        <g transform="translate(0 0)">
                                                            <g class="typst-group">
                                                                <g>
                                                                    <g transform="translate(0 0)">
                                                                        <path class="typst-shape" fill="none" stroke="#01ff70" stroke-width="1" stroke-linecap="butt" stroke-linejoin="miter" stroke-miterlimit="4" stroke-dashoffset="0" stroke-dasharray="3 3" d="M 94.72207 56.89624 C 123.068565 48.218052 123.068565 78.59171 94.72207 69.91353 "/>
                                                                    </g>
                                                                </g>
                                                            </g>
                                                        </g>
                                                        <g transform="translate(0 0)">
                                                            <g class="typst-group">
                                                                <g>
                                                                    <g transform="translate(0 0)">
                                                                        <path class="typst-shape" fill="#01ff70" stroke="#01ff70" stroke-width="1" stroke-linecap="butt" stroke-linejoin="miter" stroke-miterlimit="4" d="M 98.78778 71.158226 C 98.78778 71.158226 98.289894 72.784515 98.289894 72.784515 C 98.289894 72.784515 94.72207 69.91353 94.72207 69.91353 C 94.72207 69.91353 99.28566 69.531944 99.28566 69.531944 C 99.28566 69.531944 99.28566 69.531944 99.28566 69.531944 C 99.28566 69.531944 98.78778 71.158226 98.78778 71.158226 C 98.78778 71.158226 98.78778 71.158226 98.78778 71.158226 Z "/>
                                                                    </g>
                                                                </g>
                                                            </g>
                                                        </g>
                                                    </g>
                                                </g>
                                            </g>
                                        </g>
                                    </g>
                                </g>
                            </g>
                        </g>
                    </g>
                </g>
            </g>
        </g>
    </g>
</svg>
