<svg class="typst-doc" viewBox="0 0 132.489075874974 141.73249997918526" width="132.489075874974pt" height="141.73249997918526pt" xmlns="http://www.w3.org/2000/svg" xmlns:xlink="http://www.w3.org/1999/xlink" xmlns:h5="http://www.w3.org/1999/xhtml">
    <g>
        <g transform="translate(0 0)">
            <g class="typst-group">
                <g>
                    <g transform="translate(-0 -0)">
                        <path class="typst-shape" fill="#000000" d="M 0 0 L 0 141.7325 L 132.48907 141.7325 L 132.48907 0 Z "/>
                    </g>
                    <g transform="translate(9.243423898253992 5.33860816030596)">
                        <path class="typst-shape" fill="#ff4136" d="M 0 136.39389 C 0 136.39389 0 136.39389 0 136.39389 C 0 136.39389 2.5152173 127.812515 2.5152173 127.812515 C 2.5152173 127.812515 5.0304346 119.26039 5.0304346 119.26039 C 5.0304346 119.26039 7.5456524 110.76769 7.5456524 110.76769 C 7.5456524 110.76769 10.060869 102.36543 10.060869 102.36543 C 10.060869 102.36543 12.576087 94.08531 12.576087 94.08531 C 12.576087 94.08531 15.091305 85.95949 15.091305 85.95949 C 15.091305 85.95949 17.606522 78.020424 17.606522 78.020424 C 17.606522 78.020424 20.121738 70.30063 20.121738 70.30063 C 20.121738 70.30063 22.636957 62.832478 22.636957 62.832478 C 22.636957 62.832478 25.152174 55.64796 25.152174 55.64796 C 25.152174 55.64796 27.66739 48.778477 27.66739 48.778477 C 27.66739 48.778477 30.18261 42.254604 30.18261 42.254604 C 30.18261 42.254604 32.697826 36.105865 32.697826 36.105865 C 32.697826 36.105865 35.213043 30.360508 35.213043 30.360508 C 35.213043 30.360508 37.72826 25.045301 37.72826 25.045301 C 37.72826 25.045301 40.243477 20.185312 40.243477 20.185312 C 40.243477 20.185312 42.758694 15.803722 42.758694 15.803722 C 42.758694 15.803722 45.273914 11.921634 45.273914 11.921634 C 45.273914 11.921634 47.78913 8.557904 47.78913 8.557904 C 47.78913 8.557904 50.304348 5.7289987 50.304348 5.7289987 C 50.304348 5.7289987 52.819565 3.4488459 52.819565 3.4488459 C 52.819565 3.4488459 55.33478 1.7287322 55.33478 1.7287322 C 55.33478 1.7287322 57.85 0.57720435 57.85 0.57720435 C 57.85 0.57720435 60.36522 0 60.36522 0 C 60.36522 0 62.880436 0 62.880436 0 C 62.880436 0 65.39565 0.57720435 65.39565 0.57720435 C 65.39565 0.57720435 67.910866 1.7287322 67.910866 1.7287322 C 67.910866 1.7287322 70.42609 3.4488459 70.42609 3.4488459 C 70.42609 3.4488459 72.94131 5.7289987 72.94131 5.7289987 C 72.94131 5.7289987 75.45652 8.557904 75.45652 8.557904 C 75.45652 8.557904 77.97174 11.921634 77.97174 11.921634 C 77.97174 11.921634 80.48695 15.803722 80.48695 15.803722 C 80.48695 15.803722 83.002174 20.185312 83.002174 20.185312 C 83.002174 20.185312 85.51739 25.045301 85.51739 25.045301 C 85.51739 25.045301 88.03261 30.360508 88.03261 30.360508 C 88.03261 30.360508 90.54783 36.105865 90.54783 36.105865 C 90.54783 36.105865 93.06304 42.254604 93.06304 42.254604 C 93.06304 42.254604 95.57826 48.778477 95.57826 48.778477 C 95.57826 48.778477 98.093475 55.64796 98.093475 55.64796 C 98.093475 55.64796 100.608696 62.832478 100.608696 62.832478 C 100.608696 62.832478 103.12392 70.30063 103.12392 70.30063 C 103.12392 70.30063 105.63913 78.020424 105.63913 78.020424 C 105.63913 78.020424 108.15435 85.95949 108.15435 85.95949 C 108.15435 85.95949 110.66956 94.08531 110.66956 94.08531 C 110.66956 94.08531 113.184784 102.36543 113.184784 102.36543 C 113.184784 102.36543 115.7 110.76769 115.7 110.76769 C 115.7 110.76769 118.21522 119.26039 118.21522 119.26039 C 118.21522 119.26039 120.73044 127.812515 120.73044 127.812515 C 120.73044 127.812515 123.24565 136.39389 123.24565 136.39389 C 123.24565 136.39389 123.24565 136.39389 123.24565 136.39389 "/>
                    </g>
                    <g transform="translate(0 86.93683975540205)">
                        <path class="typst-shape" fill="#208f2d" stroke="#000000" stroke-width="1" stroke-linecap="butt" stroke-linejoin="miter" stroke-miterlimit="4" d="M 0 0 C 0 0 18.486847 0 18.486847 0 C 18.486847 0 18.486847 54.795662 18.486847 54.795662 C 18.486847 54.795662 0 54.795662 0 54.795662 C 0 54.795662 0 0 0 0 C 0 0 0 0 0 0 Z "/>
                    </g>
                    <g transform="translate(20.540941996119994 33.90536750460683)">
                        <path class="typst-shape" fill="#208f2d" stroke="#000000" stroke-width="1" stroke-linecap="butt" stroke-linejoin="miter" stroke-miterlimit="4" d="M 0 0 C 0 0 18.486847 0 18.486847 0 C 18.486847 0 18.486847 107.82713 18.486847 107.82713 C 18.486847 107.82713 0 107.82713 0 107.82713 C 0 107.82713 0 0 0 0 C 0 0 0 0 0 0 Z "/>
                    </g>
                    <g transform="translate(41.081883992239995 7.824315577986223)">
                        <path class="typst-shape" fill="#208f2d" stroke="#000000" stroke-width="1" stroke-linecap="butt" stroke-linejoin="miter" stroke-miterlimit="4" d="M 0 0 C 0 0 18.486847 0 18.486847 0 C 18.486847 0 18.486847 133.90819 18.486847 133.90819 C 18.486847 133.90819 0 133.90819 0 133.90819 C 0 133.90819 0 0 0 0 C 0 0 0 0 0 0 Z "/>
                    </g>
                    <g transform="translate(61.622825988359985 0)">
                        <path class="typst-shape" fill="#208f2d" stroke="#000000" stroke-width="1" stroke-linecap="butt" stroke-linejoin="miter" stroke-miterlimit="4" d="M 0 0 C 0 0 18.486847 0 18.486847 0 C 18.486847 0 18.486847 141.7325 18.486847 141.7325 C 18.486847 141.7325 0 141.7325 0 141.7325 C 0 141.7325 0 0 0 0 C 0 0 0 0 0 0 Z "/>
                    </g>
                    <g transform="translate(82.16376798447999 60.85578782878144)">
                        <path class="typst-shape" fill="#208f2d" stroke="#000000" stroke-width="1" stroke-linecap="butt" stroke-linejoin="miter" stroke-miterlimit="4" d="M 0 0 C 0 0 18.486847 0 18.486847 0 C 18.486847 0 18.486847 80.87671 18.486847 80.87671 C 18.486847 80.87671 0 80.87671 0 80.87671 C 0 80.87671 0 0 0 0 C 0 0 0 0 0 0 Z "/>
                    </g>
                    <g transform="translate(102.70470998059997 122.58094405511686)">
                        <path class="typst-shape" fill="#208f2d" stroke="#000000" stroke-width="1" stroke-linecap="butt" stroke-linejoin="miter" stroke-miterlimit="4" d="M 0 0 C 0 0 18.486847 0 18.486847 0 C 18.486847 0 18.486847 19.151556 18.486847 19.151556 C 18.486847 19.151556 0 19.151556 0 19.151556 C 0 19.151556 0 0 0 0 C 0 0 0 0 0 0 Z "/>
                    </g>
                    <g transform="translate(9.243423898253992 5.33860816030596)">
                        <path class="typst-shape" fill="none" stroke="#ff4136" stroke-width="1" stroke-linecap="butt" stroke-linejoin="miter" stroke-miterlimit="4" d="M 0 136.39389 C 0 136.39389 2.5152173 127.812515 2.5152173 127.812515 C 2.5152173 127.812515 5.0304346 119.26039 5.0304346 119.26039 C 5.0304346 119.26039 7.5456524 110.76769 7.5456524 110.76769 C 7.5456524 110.76769 10.060869 102.36543 10.060869 102.36543 C 10.060869 102.36543 12.576087 94.08531 12.576087 94.08531 C 12.576087 94.08531 15.091305 85.95949 15.091305 85.95949 C 15.091305 85.95949 17.606522 78.020424 17.606522 78.020424 C 17.606522 78.020424 20.121738 70.30063 20.121738 70.30063 C 20.121738 70.30063 22.636957 62.832478 22.636957 62.832478 C 22.636957 62.832478 25.152174 55.64796 25.152174 55.64796 C 25.152174 55.64796 27.66739 48.778477 27.66739 48.778477 C 27.66739 48.778477 30.18261 42.254604 30.18261 42.254604 C 30.18261 42.254604 32.697826 36.105865 32.697826 36.105865 C 32.697826 36.105865 35.213043 30.360508 35.213043 30.360508 C 35.213043 30.360508 37.72826 25.045301 37.72826 25.045301 C 37.72826 25.045301 40.243477 20.185312 40.243477 20.185312 C 40.243477 20.185312 42.758694 15.803722 42.758694 15.803722 C 42.758694 15.803722 45.273914 11.921634 45.273914 11.921634 C 45.273914 11.921634 47.78913 8.557904 47.78913 8.557904 C 47.78913 8.557904 50.304348 5.7289987 50.304348 5.7289987 C 50.304348 5.7289987 52.819565 3.4488459 52.819565 3.4488459 C 52.819565 3.4488459 55.33478 1.7287322 55.33478 1.7287322 C 55.33478 1.7287322 57.85 0.57720435 57.85 0.57720435 C 57.85 0.57720435 60.36522 0 60.36522 0 C 60.36522 0 62.880436 0 62.880436 0 C 62.880436 0 65.39565 0.57720435 65.39565 0.57720435 C 65.39565 0.57720435 67.910866 1.7287322 67.910866 1.7287322 C 67.910866 1.7287322 70.42609 3.4488459 70.42609 3.4488459 C 70.42609 3.4488459 72.94131 5.7289987 72.94131 5.7289987 C 72.94131 5.7289987 75.45652 8.557904 75.45652 8.557904 C 75.45652 8.557904 77.97174 11.921634 77.97174 11.921634 C 77.97174 11.921634 80.48695 15.803722 80.48695 15.803722 C 80.48695 15.803722 83.002174 20.185312 83.002174 20.185312 C 83.002174 20.185312 85.51739 25.045301 85.51739 25.045301 C 85.51739 25.045301 88.03261 30.360508 88.03261 30.360508 C 88.03261 30.360508 90.54783 36.105865 90.54783 36.105865 C 90.54783 36.105865 93.06304 42.254604 93.06304 42.254604 C 93.06304 42.254604 95.57826 48.778477 95.57826 48.778477 C 95.57826 48.778477 98.093475 55.64796 98.093475 55.64796 C 98.093475 55.64796 100.608696 62.832478 100.608696 62.832478 C 100.608696 62.832478 103.12392 70.30063 103.12392 70.30063 C 103.12392 70.30063 105.63913 78.020424 105.63913 78.020424 C 105.63913 78.020424 108.15435 85.95949 108.15435 85.95949 C 108.15435 85.95949 110.66956 94.08531 110.66956 94.08531 C 110.66956 94.08531 113.184784 102.36543 113.184784 102.36543 C 113.184784 102.36543 115.7 110.76769 115.7 110.76769 C 115.7 110.76769 118.21522 119.26039 118.21522 119.26039 C 118.21522 119.26039 120.73044 127.812515 120.73044 127.812515 C 120.73044 127.812515 123.24565 136.39389 123.24565 136.39389 "/>
                    </g>
                    <g transform="translate(0 86.93683975540205)">
                        <path class="typst-shape" fill="#208f2d" stroke="#000000" stroke-width="1" stroke-linecap="butt" stroke-linejoin="miter" stroke-miterlimit="4" d="M 0 0 C 0 0 18.486847 0 18.486847 0 C 18.486847 0 18.486847 54.795662 18.486847 54.795662 C 18.486847 54.795662 0 54.795662 0 54.795662 C 0 54.795662 0 0 0 0 C 0 0 0 0 0 0 Z "/>
                    </g>
                    <g transform="translate(20.540941996119994 33.90536750460683)">
                        <path class="typst-shape" fill="#208f2d" stroke="#000000" stroke-width="1" stroke-linecap="butt" stroke-linejoin="miter" stroke-miterlimit="4" d="M 0 0 C 0 0 18.486847 0 18.486847 0 C 18.486847 0 18.486847 107.82713 18.486847 107.82713 C 18.486847 107.82713 0 107.82713 0 107.82713 C 0 107.82713 0 0 0 0 C 0 0 0 0 0 0 Z "/>
                    </g>
                    <g transform="translate(41.081883992239995 7.824315577986223)">
                        <path class="typst-shape" fill="#208f2d" stroke="#000000" stroke-width="1" stroke-linecap="butt" stroke-linejoin="miter" stroke-miterlimit="4" d="M 0 0 C 0 0 18.486847 0 18.486847 0 C 18.486847 0 18.486847 133.90819 18.486847 133.90819 C 18.486847 133.90819 0 133.90819 0 133.90819 C 0 133.90819 0 0 0 0 C 0 0 0 0 0 0 Z "/>
                    </g>
                    <g transform="translate(61.622825988359985 0)">
                        <path class="typst-shape" fill="#208f2d" stroke="#000000" stroke-width="1" stroke-linecap="butt" stroke-linejoin="miter" stroke-miterlimit="4" d="M 0 0 C 0 0 18.486847 0 18.486847 0 C 18.486847 0 18.486847 141.7325 18.486847 141.7325 C 18.486847 141.7325 0 141.7325 0 141.7325 C 0 141.7325 0 0 0 0 C 0 0 0 0 0 0 Z "/>
                    </g>
                    <g transform="translate(82.16376798447999 60.85578782878144)">
                        <path class="typst-shape" fill="#208f2d" stroke="#000000" stroke-width="1" stroke-linecap="butt" stroke-linejoin="miter" stroke-miterlimit="4" d="M 0 0 C 0 0 18.486847 0 18.486847 0 C 18.486847 0 18.486847 80.87671 18.486847 80.87671 C 18.486847 80.87671 0 80.87671 0 80.87671 C 0 80.87671 0 0 0 0 C 0 0 0 0 0 0 Z "/>
                    </g>
                    <g transform="translate(102.70470998059997 122.58094405511686)">
                        <path class="typst-shape" fill="#208f2d" stroke="#000000" stroke-width="1" stroke-linecap="butt" stroke-linejoin="miter" stroke-miterlimit="4" d="M 0 0 C 0 0 18.486847 0 18.486847 0 C 18.486847 0 18.486847 19.151556 18.486847 19.151556 C 18.486847 19.151556 0 19.151556 0 19.151556 C 0 19.151556 0 0 0 0 C 0 0 0 0 0 0 Z "/>
                    </g>
                    <g transform="translate(0 0)">
                        <g class="typst-group">
                            <g>
                                <g transform="translate(27.36053468894199 77.81320261079462)">
                                    <g class="typst-group">
                                        <g>
                                            <g transform="translate(0 0)">
                                                <g class="typst-group">
                                                    <g>
                                                        <g transform="translate(0 0)">
                                                            <path class="typst-shape" fill="#000000" d="M 11.3386 3.4700203 C 17.595058 3.4700203 22.6772 8.552162 22.6772 14.80862 C 22.6772 14.80862 22.6772 14.80862 22.6772 14.80862 C 22.6772 21.065079 17.595058 26.14722 11.3386 26.14722 C 11.3386 26.14722 11.3386 26.14722 11.3386 26.14722 C 5.082142 26.14722 0 21.065079 0 14.80862 C 0 14.80862 0 14.80862 0 14.80862 C 0 8.552162 5.082142 3.4700203 11.3386 3.4700203 "/>
                                                        </g>
                                                        <g transform="translate(0 0)">
                                                            <g class="typst-group">
                                                                <g>
                                                                    <g transform="translate(0 0)">
                                                                        <path class="typst-shape" fill="#00000080" d="M 51.0237 3.4700203 C 57.28016 3.4700203 62.3623 8.552162 62.3623 14.80862 C 62.3623 14.80862 62.3623 14.80862 62.3623 14.80862 C 62.3623 21.065079 57.28016 26.14722 51.0237 26.14722 C 51.0237 26.14722 51.0237 26.14722 51.0237 26.14722 C 44.767242 26.14722 39.6851 21.065079 39.6851 14.80862 C 39.6851 14.80862 39.6851 14.80862 39.6851 14.80862 C 39.6851 8.552162 44.767242 3.4700203 51.0237 3.4700203 "/>
                                                                    </g>
                                                                </g>
                                                            </g>
                                                        </g>
                                                        <g transform="translate(0 0)">
                                                            <g class="typst-group">
                                                                <g>
                                                                    <g transform="translate(0 0)">
                                                                        <path class="typst-shape" fill="none" stroke="#000000" stroke-width="1" stroke-linecap="butt" stroke-linejoin="miter" stroke-miterlimit="4" d="M 6.9995055 4.33312 C 6.42096 -7.0054803 16.25624 -7.0054803 15.677694 4.33312 "/>
                                                                    </g>
                                                                </g>
                                                            </g>
                                                        </g>
                                                        <g transform="translate(0 0)">
                                                            <g class="typst-group">
                                                                <g>
                                                                    <g transform="translate(0 0)">
                                                                        <path class="typst-shape" fill="#000000" stroke="#000000" stroke-width="1" stroke-linecap="butt" stroke-linejoin="miter" stroke-miterlimit="4" d="M 15.894367 0.08666914 C 15.894367 0.08666914 17.592947 0.17333828 17.592947 0.17333828 C 17.592947 0.17333828 15.677694 4.33312 15.677694 4.33312 C 15.677694 4.33312 14.195786 0 14.195786 0 C 14.195786 0 14.195786 0 14.195786 0 C 14.195786 0 15.894367 0.08666914 15.894367 0.08666914 C 15.894367 0.08666914 15.894367 0.08666914 15.894367 0.08666914 Z "/>
                                                                    </g>
                                                                </g>
                                                            </g>
                                                        </g>
                                                        <g transform="translate(0 0)">
                                                            <g class="typst-group">
                                                                <g>
                                                                    <g transform="translate(0 0)">
                                                                        <path class="typst-shape" fill="none" stroke="#000000" stroke-width="1" stroke-linecap="butt" stroke-linejoin="miter" stroke-miterlimit="4" d="M 22.6772 14.80862 C 51.0237 14.80862 11.3386 14.80862 39.6851 14.80862 "/>
                                                                    </g>
                                                                </g>
                                                            </g>
                                                        </g>
                                                        <g transform="translate(0 0)">
                                                            <g class="typst-group">
                                                                <g>
                                                                    <g transform="translate(0 0)">
                                                                        <path class="typst-shape" fill="#000000" stroke="#000000" stroke-width="1" stroke-linecap="butt" stroke-linejoin="miter" stroke-miterlimit="4" d="M 35.433125 14.80862 C 35.433125 14.80862 35.433125 13.10783 35.433125 13.10783 C 35.433125 13.10783 39.6851 14.80862 39.6851 14.80862 C 39.6851 14.80862 35.433125 16.50941 35.433125 16.50941 C 35.433125 16.50941 35.433125 16.50941 35.433125 16.50941 C 35.433125 16.50941 35.433125 14.80862 35.433125 14.80862 C 35.433125 14.80862 35.433125 14.80862 35.433125 14.80862 Z "/>
                                                                    </g>
                                                                </g>
                                                            </g>
                                                        </g>
                                                    </g>
                                                </g>
                                            </g>
                                        </g>
                                    </g>
                                </g>
                            </g>
                        </g>
                    </g>
                </g>
            </g>
        </g>
    </g>
</svg>
