<svg class="typst-doc" viewBox="0 0 131.60874982452165 141.73249997918526" width="131.60874982452165pt" height="141.73249997918526pt" xmlns="http://www.w3.org/2000/svg" xmlns:xlink="http://www.w3.org/1999/xlink" xmlns:h5="http://www.w3.org/1999/xhtml">
    <g>
        <g transform="translate(0 0)">
            <g class="typst-group">
                <g>
                    <g transform="translate(-0 -0)">
                        <path class="typst-shape" fill="#000000" d="M 0 0 L 0 141.7325 L 131.60875 141.7325 L 131.60875 0 Z "/>
                    </g>
                    <g transform="translate(0 86.93683975540205)">
                        <path class="typst-shape" fill="#005dae" stroke="#000000" stroke-width="1" stroke-linecap="butt" stroke-linejoin="miter" stroke-miterlimit="4" d="M 0 0 C 0 0 20.2475 0 20.2475 0 C 20.2475 0 20.2475 54.795662 20.2475 54.795662 C 20.2475 54.795662 0 54.795662 0 54.795662 C 0 54.795662 0 0 0 0 C 0 0 0 0 0 0 Z "/>
                    </g>
                    <g transform="translate(20.247499973003347 33.90536750460683)">
                        <path class="typst-shape" fill="#005dae" stroke="#000000" stroke-width="1" stroke-linecap="butt" stroke-linejoin="miter" stroke-miterlimit="4" d="M 0 0 C 0 0 20.2475 0 20.2475 0 C 20.2475 0 20.2475 107.82713 20.2475 107.82713 C 20.2475 107.82713 0 107.82713 0 107.82713 C 0 107.82713 0 0 0 0 C 0 0 0 0 0 0 Z "/>
                    </g>
                    <g transform="translate(40.49499994600667 7.824315577986223)">
                        <path class="typst-shape" fill="#005dae" stroke="#000000" stroke-width="1" stroke-linecap="butt" stroke-linejoin="miter" stroke-miterlimit="4" d="M 0 0 C 0 0 20.2475 0 20.2475 0 C 20.2475 0 20.2475 133.90819 20.2475 133.90819 C 20.2475 133.90819 0 133.90819 0 133.90819 C 0 133.90819 0 0 0 0 C 0 0 0 0 0 0 Z "/>
                    </g>
                    <g transform="translate(60.74249991901001 0)">
                        <path class="typst-shape" fill="#005dae" stroke="#000000" stroke-width="1" stroke-linecap="butt" stroke-linejoin="miter" stroke-miterlimit="4" d="M 0 0 C 0 0 20.2475 0 20.2475 0 C 20.2475 0 20.2475 141.7325 20.2475 141.7325 C 20.2475 141.7325 0 141.7325 0 141.7325 C 0 141.7325 0 0 0 0 C 0 0 0 0 0 0 Z "/>
                    </g>
                    <g transform="translate(80.98999989201333 60.85578782878144)">
                        <path class="typst-shape" fill="#005dae" stroke="#000000" stroke-width="1" stroke-linecap="butt" stroke-linejoin="miter" stroke-miterlimit="4" d="M 0 0 C 0 0 20.2475 0 20.2475 0 C 20.2475 0 20.2475 80.87671 20.2475 80.87671 C 20.2475 80.87671 0 80.87671 0 80.87671 C 0 80.87671 0 0 0 0 C 0 0 0 0 0 0 Z "/>
                    </g>
                    <g transform="translate(101.23749986501667 122.58094405511686)">
                        <path class="typst-shape" fill="#005dae" stroke="#000000" stroke-width="1" stroke-linecap="butt" stroke-linejoin="miter" stroke-miterlimit="4" d="M 0 0 C 0 0 20.2475 0 20.2475 0 C 20.2475 0 20.2475 19.151556 20.2475 19.151556 C 20.2475 19.151556 0 19.151556 0 19.151556 C 0 19.151556 0 0 0 0 C 0 0 0 0 0 0 Z "/>
                    </g>
                    <g transform="translate(0 86.93683975540205)">
                        <path class="typst-shape" fill="#005dae" stroke="#000000" stroke-width="1" stroke-linecap="butt" stroke-linejoin="miter" stroke-miterlimit="4" d="M 0 0 C 0 0 20.2475 0 20.2475 0 C 20.2475 0 20.2475 54.795662 20.2475 54.795662 C 20.2475 54.795662 0 54.795662 0 54.795662 C 0 54.795662 0 0 0 0 C 0 0 0 0 0 0 Z "/>
                    </g>
                    <g transform="translate(20.247499973003347 33.90536750460683)">
                        <path class="typst-shape" fill="#005dae" stroke="#000000" stroke-width="1" stroke-linecap="butt" stroke-linejoin="miter" stroke-miterlimit="4" d="M 0 0 C 0 0 20.2475 0 20.2475 0 C 20.2475 0 20.2475 107.82713 20.2475 107.82713 C 20.2475 107.82713 0 107.82713 0 107.82713 C 0 107.82713 0 0 0 0 C 0 0 0 0 0 0 Z "/>
                    </g>
                    <g transform="translate(40.49499994600667 7.824315577986223)">
                        <path class="typst-shape" fill="#005dae" stroke="#000000" stroke-width="1" stroke-linecap="butt" stroke-linejoin="miter" stroke-miterlimit="4" d="M 0 0 C 0 0 20.2475 0 20.2475 0 C 20.2475 0 20.2475 133.90819 20.2475 133.90819 C 20.2475 133.90819 0 133.90819 0 133.90819 C 0 133.90819 0 0 0 0 C 0 0 0 0 0 0 Z "/>
                    </g>
                    <g transform="translate(60.74249991901001 0)">
                        <path class="typst-shape" fill="#005dae" stroke="#000000" stroke-width="1" stroke-linecap="butt" stroke-linejoin="miter" stroke-miterlimit="4" d="M 0 0 C 0 0 20.2475 0 20.2475 0 C 20.2475 0 20.2475 141.7325 20.2475 141.7325 C 20.2475 141.7325 0 141.7325 0 141.7325 C 0 141.7325 0 0 0 0 C 0 0 0 0 0 0 Z "/>
                    </g>
                    <g transform="translate(80.98999989201333 60.85578782878144)">
                        <path class="typst-shape" fill="#005dae" stroke="#000000" stroke-width="1" stroke-linecap="butt" stroke-linejoin="miter" stroke-miterlimit="4" d="M 0 0 C 0 0 20.2475 0 20.2475 0 C 20.2475 0 20.2475 80.87671 20.2475 80.87671 C 20.2475 80.87671 0 80.87671 0 80.87671 C 0 80.87671 0 0 0 0 C 0 0 0 0 0 0 Z "/>
                    </g>
                    <g transform="translate(101.23749986501667 122.58094405511686)">
                        <path class="typst-shape" fill="#005dae" stroke="#000000" stroke-width="1" stroke-linecap="butt" stroke-linejoin="miter" stroke-miterlimit="4" d="M 0 0 C 0 0 20.2475 0 20.2475 0 C 20.2475 0 20.2475 19.151556 20.2475 19.151556 C 20.2475 19.151556 0 19.151556 0 19.151556 C 0 19.151556 0 0 0 0 C 0 0 0 0 0 0 Z "/>
                    </g>
                    <g transform="translate(10.123749986501675 5.33860816030596)">
                        <path class="typst-shape" fill="none" stroke="#ff4136" stroke-width="1" stroke-linecap="butt" stroke-linejoin="miter" stroke-miterlimit="4" d="M 0 136.39389 C 0 136.39389 2.4792857 127.812515 2.4792857 127.812515 C 2.4792857 127.812515 4.9585714 119.26039 4.9585714 119.26039 C 4.9585714 119.26039 7.437857 110.76769 7.437857 110.76769 C 7.437857 110.76769 9.917143 102.36543 9.917143 102.36543 C 9.917143 102.36543 12.396428 94.08531 12.396428 94.08531 C 12.396428 94.08531 14.875714 85.95949 14.875714 85.95949 C 14.875714 85.95949 17.355 78.020424 17.355 78.020424 C 17.355 78.020424 19.834286 70.30063 19.834286 70.30063 C 19.834286 70.30063 22.313572 62.832478 22.313572 62.832478 C 22.313572 62.832478 24.792856 55.64796 24.792856 55.64796 C 24.792856 55.64796 27.272142 48.778477 27.272142 48.778477 C 27.272142 48.778477 29.751429 42.254604 29.751429 42.254604 C 29.751429 42.254604 32.230713 36.105865 32.230713 36.105865 C 32.230713 36.105865 34.71 30.360508 34.71 30.360508 C 34.71 30.360508 37.189285 25.045301 37.189285 25.045301 C 37.189285 25.045301 39.66857 20.185312 39.66857 20.185312 C 39.66857 20.185312 42.147858 15.803722 42.147858 15.803722 C 42.147858 15.803722 44.627144 11.921634 44.627144 11.921634 C 44.627144 11.921634 47.10643 8.557904 47.10643 8.557904 C 47.10643 8.557904 49.585712 5.7289987 49.585712 5.7289987 C 49.585712 5.7289987 52.065 3.4488459 52.065 3.4488459 C 52.065 3.4488459 54.544285 1.7287322 54.544285 1.7287322 C 54.544285 1.7287322 57.02357 0.57720435 57.02357 0.57720435 C 57.02357 0.57720435 59.502857 0 59.502857 0 C 59.502857 0 61.982143 0 61.982143 0 C 61.982143 0 64.461426 0.57720435 64.461426 0.57720435 C 64.461426 0.57720435 66.94071 1.7287322 66.94071 1.7287322 C 66.94071 1.7287322 69.42 3.4488459 69.42 3.4488459 C 69.42 3.4488459 71.899284 5.7289987 71.899284 5.7289987 C 71.899284 5.7289987 74.37857 8.557904 74.37857 8.557904 C 74.37857 8.557904 76.85786 11.921634 76.85786 11.921634 C 76.85786 11.921634 79.33714 15.803722 79.33714 15.803722 C 79.33714 15.803722 81.81643 20.185312 81.81643 20.185312 C 81.81643 20.185312 84.295715 25.045301 84.295715 25.045301 C 84.295715 25.045301 86.775 30.360508 86.775 30.360508 C 86.775 30.360508 89.25429 36.105865 89.25429 36.105865 C 89.25429 36.105865 91.733574 42.254604 91.733574 42.254604 C 91.733574 42.254604 94.21286 48.778477 94.21286 48.778477 C 94.21286 48.778477 96.69215 55.64796 96.69215 55.64796 C 96.69215 55.64796 99.171425 62.832478 99.171425 62.832478 C 99.171425 62.832478 101.65071 70.30063 101.65071 70.30063 C 101.65071 70.30063 104.13 78.020424 104.13 78.020424 C 104.13 78.020424 106.60928 85.95949 106.60928 85.95949 C 106.60928 85.95949 109.08857 94.08531 109.08857 94.08531 C 109.08857 94.08531 111.567856 102.36543 111.567856 102.36543 C 111.567856 102.36543 114.04714 110.76769 114.04714 110.76769 C 114.04714 110.76769 116.52643 119.26039 116.52643 119.26039 C 116.52643 119.26039 119.005714 127.812515 119.005714 127.812515 C 119.005714 127.812515 121.485 136.39389 121.485 136.39389 "/>
                    </g>
                    <g transform="translate(0 0)">
                        <g class="typst-group">
                            <g>
                                <g transform="translate(19.055779390117173 56.954452270867115)">
                                    <g class="typst-group">
                                        <g>
                                            <g transform="translate(0 0)">
                                                <g class="typst-group">
                                                    <g>
                                                        <g transform="translate(0 0)">
                                                            <path class="typst-shape" fill="#3d9970" d="M 22.54321 36.522827 C 30.363781 36.522827 36.716457 42.875504 36.716457 50.696075 C 36.716457 50.696075 36.716457 50.696075 36.716457 50.696075 C 36.716457 58.516647 30.363781 64.86932 22.54321 64.86932 C 22.54321 64.86932 22.54321 64.86932 22.54321 64.86932 C 14.722636 64.86932 8.369959 58.516647 8.369959 50.696075 C 8.369959 50.696075 8.369959 50.696075 8.369959 50.696075 C 8.369959 42.875504 14.722636 36.522827 22.54321 36.522827 "/>
                                                        </g>
                                                        <g transform="translate(0 0)">
                                                            <g class="typst-group">
                                                                <g>
                                                                    <g transform="translate(0 0)">
                                                                        <path class="typst-shape" fill="#3d9970" d="M 42.256058 8.369959 C 50.07663 8.369959 56.42931 14.722636 56.42931 22.54321 C 56.42931 22.54321 56.42931 22.54321 56.42931 22.54321 C 56.42931 30.363781 50.07663 36.716457 42.256058 36.716457 C 42.256058 36.716457 42.256058 36.716457 42.256058 36.716457 C 34.435486 36.716457 28.08281 30.363781 28.08281 22.54321 C 28.08281 22.54321 28.08281 22.54321 28.08281 22.54321 C 28.08281 14.722636 34.435486 8.369959 42.256058 8.369959 "/>
                                                                    </g>
                                                                </g>
                                                            </g>
                                                        </g>
                                                        <g transform="translate(0 0)">
                                                            <g class="typst-group">
                                                                <g>
                                                                    <g transform="translate(0 0)">
                                                                        <path class="typst-shape" fill="#3d9970" d="M 56.78073 39.518223 C 64.6013 39.518223 70.95398 45.8709 70.95398 53.69147 C 70.95398 53.69147 70.95398 53.69147 70.95398 53.69147 C 70.95398 61.512043 64.6013 67.86472 56.78073 67.86472 C 56.78073 67.86472 56.78073 67.86472 56.78073 67.86472 C 48.96016 67.86472 42.607483 61.512043 42.607483 53.69147 C 42.607483 53.69147 42.607483 53.69147 42.607483 53.69147 C 42.607483 45.8709 48.96016 39.518223 56.78073 39.518223 "/>
                                                                    </g>
                                                                </g>
                                                            </g>
                                                        </g>
                                                        <g transform="translate(0 0)">
                                                            <g class="typst-group">
                                                                <g>
                                                                    <g transform="translate(0 0)">
                                                                        <path class="typst-shape" fill="none" stroke="#3d9970" stroke-width="1" stroke-linecap="butt" stroke-linejoin="miter" stroke-miterlimit="4" stroke-dashoffset="0" stroke-dasharray="3 3" d="M 9.448833 56.119946 C -18.897667 63.35177 -18.897667 38.040382 9.448833 45.27221 "/>
                                                                    </g>
                                                                </g>
                                                            </g>
                                                        </g>
                                                        <g transform="translate(0 0)">
                                                            <g class="typst-group">
                                                                <g>
                                                                    <g transform="translate(0 0)">
                                                                        <path class="typst-shape" fill="#3d9970" stroke="#3d9970" stroke-width="1" stroke-linecap="butt" stroke-linejoin="miter" stroke-miterlimit="4" d="M 5.328825 44.221104 C 5.328825 44.221104 5.7492676 42.573097 5.7492676 42.573097 C 5.7492676 42.573097 9.448833 45.27221 9.448833 45.27221 C 9.448833 45.27221 4.908383 45.869106 4.908383 45.869106 C 4.908383 45.869106 4.908383 45.869106 4.908383 45.869106 C 4.908383 45.869106 5.328825 44.221104 5.328825 44.221104 C 5.328825 44.221104 5.328825 44.221104 5.328825 44.221104 Z "/>
                                                                    </g>
                                                                </g>
                                                            </g>
                                                        </g>
                                                        <g transform="translate(0 0)">
                                                            <g class="typst-group">
                                                                <g>
                                                                    <g transform="translate(0 0)">
                                                                        <path class="typst-shape" fill="none" stroke="#3d9970" stroke-width="1" stroke-linecap="butt" stroke-linejoin="miter" stroke-miterlimit="4" stroke-dashoffset="0" stroke-dasharray="3 3" d="M 14.825119 38.808598 C 5.8940654 25.052902 12.465015 15.668613 28.445742 19.356333 "/>
                                                                    </g>
                                                                </g>
                                                            </g>
                                                        </g>
                                                        <g transform="translate(0 0)">
                                                            <g class="typst-group">
                                                                <g>
                                                                    <g transform="translate(0 0)">
                                                                        <path class="typst-shape" fill="#3d9970" stroke="#3d9970" stroke-width="1" stroke-linecap="butt" stroke-linejoin="miter" stroke-miterlimit="4" d="M 24.302647 18.40027 C 24.302647 18.40027 24.685072 16.743032 24.685072 16.743032 C 24.685072 16.743032 28.445742 19.356333 28.445742 19.356333 C 28.445742 19.356333 23.920221 20.057508 23.920221 20.057508 C 23.920221 20.057508 23.920221 20.057508 23.920221 20.057508 C 23.920221 20.057508 24.302647 18.40027 24.302647 18.40027 C 24.302647 18.40027 24.302647 18.40027 24.302647 18.40027 Z "/>
                                                                    </g>
                                                                </g>
                                                            </g>
                                                        </g>
                                                        <g transform="translate(0 0)">
                                                            <g class="typst-group">
                                                                <g>
                                                                    <g transform="translate(0 0)">
                                                                        <path class="typst-shape" fill="none" stroke="#3d9970" stroke-width="1" stroke-linecap="butt" stroke-linejoin="miter" stroke-miterlimit="4" stroke-dashoffset="0" stroke-dasharray="3 3" d="M 36.83219 9.448833 C 29.600367 -18.897667 54.91175 -18.897667 47.679928 9.448833 "/>
                                                                    </g>
                                                                </g>
                                                            </g>
                                                        </g>
                                                        <g transform="translate(0 0)">
                                                            <g class="typst-group">
                                                                <g>
                                                                    <g transform="translate(0 0)">
                                                                        <path class="typst-shape" fill="#3d9970" stroke="#3d9970" stroke-width="1" stroke-linecap="butt" stroke-linejoin="miter" stroke-miterlimit="4" d="M 48.731033 5.328825 C 48.731033 5.328825 50.379036 5.7492676 50.379036 5.7492676 C 50.379036 5.7492676 47.679928 9.448833 47.679928 9.448833 C 47.679928 9.448833 47.08303 4.908383 47.08303 4.908383 C 47.08303 4.908383 47.08303 4.908383 47.08303 4.908383 C 47.08303 4.908383 48.731033 5.328825 48.731033 5.328825 C 48.731033 5.328825 48.731033 5.328825 48.731033 5.328825 Z "/>
                                                                    </g>
                                                                </g>
                                                            </g>
                                                        </g>
                                                        <g transform="translate(0 0)">
                                                            <g class="typst-group">
                                                                <g>
                                                                    <g transform="translate(0 0)">
                                                                        <path class="typst-shape" fill="none" stroke="#3d9970" stroke-width="1" stroke-linecap="butt" stroke-linejoin="miter" stroke-miterlimit="4" stroke-dashoffset="0" stroke-dasharray="3 3" d="M 56.40996 21.802885 C 72.78827 20.946215 77.62983 31.328968 66.44581 43.324825 "/>
                                                                    </g>
                                                                </g>
                                                            </g>
                                                        </g>
                                                        <g transform="translate(0 0)">
                                                            <g class="typst-group">
                                                                <g>
                                                                    <g transform="translate(0 0)">
                                                                        <path class="typst-shape" fill="#3d9970" stroke="#3d9970" stroke-width="1" stroke-linecap="butt" stroke-linejoin="miter" stroke-miterlimit="4" d="M 69.34533 40.21483 C 69.34533 40.21483 70.589325 41.374638 70.589325 41.374638 C 70.589325 41.374638 66.44581 43.324825 66.44581 43.324825 C 66.44581 43.324825 68.101326 39.05502 68.101326 39.05502 C 68.101326 39.05502 68.101326 39.05502 68.101326 39.05502 C 68.101326 39.05502 69.34533 40.21483 69.34533 40.21483 C 69.34533 40.21483 69.34533 40.21483 69.34533 40.21483 Z "/>
                                                                    </g>
                                                                </g>
                                                            </g>
                                                        </g>
                                                        <g transform="translate(0 0)">
                                                            <g class="typst-group">
                                                                <g>
                                                                    <g transform="translate(0 0)">
                                                                        <path class="typst-shape" fill="none" stroke="#3d9970" stroke-width="1" stroke-linecap="butt" stroke-linejoin="miter" stroke-miterlimit="4" stroke-dashoffset="0" stroke-dasharray="3 3" d="M 69.87511 48.267605 C 98.22161 41.035778 98.22161 66.34716 69.87511 59.115337 "/>
                                                                    </g>
                                                                </g>
                                                            </g>
                                                        </g>
                                                        <g transform="translate(0 0)">
                                                            <g class="typst-group">
                                                                <g>
                                                                    <g transform="translate(0 0)">
                                                                        <path class="typst-shape" fill="#3d9970" stroke="#3d9970" stroke-width="1" stroke-linecap="butt" stroke-linejoin="miter" stroke-miterlimit="4" d="M 73.99512 60.166447 C 73.99512 60.166447 73.57468 61.81445 73.57468 61.81445 C 73.57468 61.81445 69.87511 59.115337 69.87511 59.115337 C 69.87511 59.115337 74.41556 58.51844 74.41556 58.51844 C 74.41556 58.51844 74.41556 58.51844 74.41556 58.51844 C 74.41556 58.51844 73.99512 60.166447 73.99512 60.166447 C 73.99512 60.166447 73.99512 60.166447 73.99512 60.166447 Z "/>
                                                                    </g>
                                                                </g>
                                                            </g>
                                                        </g>
                                                    </g>
                                                </g>
                                            </g>
                                        </g>
                                    </g>
                                </g>
                            </g>
                        </g>
                    </g>
                </g>
            </g>
        </g>
    </g>
</svg>
