<svg height="15.999976pt" viewBox="0 0 15.99997511 15.99997606" width="15.999975pt" xmlns="http://www.w3.org/2000/svg"><path d="m0 0v15.999976h15.999975v-15.999976z" fill="#fff"/><path d="m0 0v15.999976h15.999975v-15.999976z"/><path d="m0 15.397308.30374894-.9687395.30374894-.965436.3037489-.9587288.30374897-.94851875.30374897-.9347315.30374885-.91731167.30374908-.89622974.30374885-.87147665.30374885-.8430691.30374908-.81104946.30374885-.775486.30374885-.7364702.30374908-.6941223.30374908-.6485851.3037486-.6000259.30374908-.54863715.30374908-.4946313.3037486-.4382434.30374908-.37972647.30374908-.31935108.3037486-.25740314.30374908-.19418114.30374908-.1299943.3037486-.06515976h.30374908l.30374908.06515976.30374908.1299943.30374908.19418114.30374813.25740314.30374908.31935108.30374908.37972647.30374908.4382434.30374908.4946313.30374908.54863715.30374813.6000259.30374908.6485851.30374908.6941223.30374908.7364702.30374908.775486.30374908.81104946.30374908.8430691.30374813.87147665.30374908.89622974.30374908.91731167.30374908.9347315.30374908.94851875.30374908.9587288.30374813.965436.30374908.9687395" fill="#ff4136" transform="translate(1.116277 .602668)"/><g fill="#208f2d" stroke="#000" stroke-width=".6"><path d="m0 0v6.1858025h2.2325547v-6.1858025z" transform="translate(0 9.814174)"/><path d="m0 0v12.172448h2.2325547v-12.172448z" transform="translate(2.480616 3.827528)"/><path d="m0 0v15.1167h2.2325547v-15.1167z" transform="translate(4.961233 .883276)"/><path d="m0 0v15.999976h2.2325547v-15.999976z" transform="translate(7.441849)"/><path d="m0 0v9.130054h2.2325547v-9.130054z" transform="translate(9.922465 6.869921)"/><path d="m0 0v2.1619914h2.2325547v-2.1619914z" transform="translate(12.403081 13.837985)"/></g><path d="m0 15.397308.30374894-.9687395.30374894-.965436.3037489-.9587288.30374897-.94851875.30374897-.9347315.30374885-.91731167.30374908-.89622974.30374885-.87147665.30374885-.8430691.30374908-.81104946.30374885-.775486.30374885-.7364702.30374908-.6941223.30374908-.6485851.3037486-.6000259.30374908-.54863715.30374908-.4946313.3037486-.4382434.30374908-.37972647.30374908-.31935108.3037486-.25740314.30374908-.19418114.30374908-.1299943.3037486-.06515976h.30374908l.30374908.06515976.30374908.1299943.30374908.19418114.30374813.25740314.30374908.31935108.30374908.37972647.30374908.4382434.30374908.4946313.30374908.54863715.30374813.6000259.30374908.6485851.30374908.6941223.30374908.7364702.30374908.775486.30374908.81104946.30374908.8430691.30374813.87147665.30374908.89622974.30374908.91731167.30374908.9347315.30374908.94851875.30374908.9587288.30374813.965436.30374908.9687395" fill="none" stroke="#ff4136" transform="translate(1.116277 .602668)"/><path d="m0 0v6.1858025h2.2325547v-6.1858025z" fill="#208f2d" stroke="#000" stroke-width=".6" transform="translate(0 9.814174)"/><path d="m0 0v12.172448h2.2325547v-12.172448z" fill="#208f2d" stroke="#000" stroke-width=".6" transform="translate(2.480616 3.827528)"/><path d="m0 0v15.1167h2.2325547v-15.1167z" fill="#208f2d" stroke="#000" stroke-width=".6" transform="translate(4.961233 .883276)"/><path d="m0 0v15.999976h2.2325547v-15.999976z" fill="#208f2d" stroke="#000" stroke-width=".6" transform="translate(7.441849)"/><path d="m0 0v9.130054h2.2325547v-9.130054z" fill="#208f2d" stroke="#000" stroke-width=".6" transform="translate(9.922465 6.869921)"/><path d="m0 0v2.1619914h2.2325547v-2.1619914z" fill="#208f2d" stroke="#000" stroke-width=".6" transform="translate(12.403081 13.837985)"/></svg>