<svg height="15.999976pt" viewBox="0 0 15.99997503 15.99997605" width="15.999975pt" xmlns="http://www.w3.org/2000/svg"><path d="m0 0v15.999976h15.999975v-15.999976z" fill="#fff"/><path d="m0 15.397308s.30374894-.968739.30374894-.968739.30374896-.965436.30374896-.965436.3037489-.958729.3037489-.958729.3037489-.948519.3037489-.948519.303749-.934731.303749-.934731.3037489-.917312.3037489-.917312.303749-.89623.303749-.89623.3037489-.871476.3037489-.871476.3037488-.8430693.3037488-.8430693.3037491-.8110497.3037491-.8110497.3037489-.7754858.3037489-.7754858.3037487-.7364702.3037487-.7364702.3037492-.6941223.3037492-.6941223.3037491-.6485851.3037491-.6485851.3037487-.6000259.3037487-.6000259.303749-.5486371.303749-.5486371.303749-.4946313.303749-.4946313.3037487-.4382434.3037487-.4382434.303749-.3797265.303749-.3797265.3037493-.31935105.3037493-.31935105.3037484-.25740313.3037484-.25740313.3037491-.19418115.3037491-.19418115.3037491-.12999431.3037491-.12999431.3037484-.06515976.3037484-.06515976h.3037493s.3037491.06515976.3037491.06515976.3037486.12999431.3037486.12999431.30375.19418115.30375.19418115.303748.25740313.303748.25740313.303749.31935105.303749.31935105.303749.3797265.303749.3797265.303749.4382434.303749.4382434.303749.4946313.303749.4946313.303749.5486371.303749.5486371.303748.6000259.303748.6000259.303749.6485851.303749.6485851.303749.6941223.303749.6941223.3037495.7364702.3037495.7364702.3037495.7754858.3037495.7754858.303749.8110497.303749.8110497.303748.8430693.303748.8430693.303749.871476.303749.871476.303749.89623.303749.89623.303749.917312.303749.917312.303749.934731.303749.934731.303749.948519.303749.948519.303749.958729.303749.958729.303748.965436.303748.965436.3037495.968739.3037495.968739" fill="#ff4136" transform="translate(1.116277 .602668)"/><g fill="#208f2d" stroke="#000" stroke-width=".6"><path d="m0 0h2.2325547v6.1858025h-2.2325547z" transform="translate(0 9.814174)"/><path d="m0 0h2.2325547v12.172448h-2.2325547z" transform="translate(2.480616 3.827528)"/><path d="m0 0h2.2325547v15.1167h-2.2325547z" transform="translate(4.961233 .883276)"/><path d="m0 0h2.2325547v15.999976h-2.2325547z" transform="translate(7.441849)"/><path d="m0 0h2.2325547v9.130054h-2.2325547z" transform="translate(9.922465 6.869921)"/><path d="m0 0h2.2325547v2.1619914h-2.2325547z" transform="translate(12.403081 13.837985)"/></g><path d="m0 15.397308s.30374894-.968739.30374894-.968739.30374896-.965436.30374896-.965436.3037489-.958729.3037489-.958729.3037489-.948519.3037489-.948519.303749-.934731.303749-.934731.3037489-.917312.3037489-.917312.303749-.89623.303749-.89623.3037489-.871476.3037489-.871476.3037488-.8430693.3037488-.8430693.3037491-.8110497.3037491-.8110497.3037489-.7754858.3037489-.7754858.3037487-.7364702.3037487-.7364702.3037492-.6941223.3037492-.6941223.3037491-.6485851.3037491-.6485851.3037487-.6000259.3037487-.6000259.303749-.5486371.303749-.5486371.303749-.4946313.303749-.4946313.3037487-.4382434.3037487-.4382434.303749-.3797265.303749-.3797265.3037493-.31935105.3037493-.31935105.3037484-.25740313.3037484-.25740313.3037491-.19418115.3037491-.19418115.3037491-.12999431.3037491-.12999431.3037484-.06515976.3037484-.06515976h.3037493s.3037491.06515976.3037491.06515976.3037486.12999431.3037486.12999431.30375.19418115.30375.19418115.303748.25740313.303748.25740313.303749.31935105.303749.31935105.303749.3797265.303749.3797265.303749.4382434.303749.4382434.303749.4946313.303749.4946313.303749.5486371.303749.5486371.303748.6000259.303748.6000259.303749.6485851.303749.6485851.303749.6941223.303749.6941223.3037495.7364702.3037495.7364702.3037495.7754858.3037495.7754858.303749.8110497.303749.8110497.303748.8430693.303748.8430693.303749.871476.303749.871476.303749.89623.303749.89623.303749.917312.303749.917312.303749.934731.303749.934731.303749.948519.303749.948519.303749.958729.303749.958729.303748.965436.303748.965436.3037495.968739.3037495.968739" fill="none" stroke="#ff4136" transform="translate(1.116277 .602668)"/><path d="m0 0h2.2325547v6.1858025h-2.2325547z" fill="#208f2d" stroke="#000" stroke-width=".6" transform="translate(0 9.814174)"/><path d="m0 0h2.2325547v12.172448h-2.2325547z" fill="#208f2d" stroke="#000" stroke-width=".6" transform="translate(2.480616 3.827528)"/><path d="m0 0h2.2325547v15.1167h-2.2325547z" fill="#208f2d" stroke="#000" stroke-width=".6" transform="translate(4.961233 .883276)"/><path d="m0 0h2.2325547v15.999976h-2.2325547z" fill="#208f2d" stroke="#000" stroke-width=".6" transform="translate(7.441849)"/><path d="m0 0h2.2325547v9.130054h-2.2325547z" fill="#208f2d" stroke="#000" stroke-width=".6" transform="translate(9.922465 6.869921)"/><path d="m0 0h2.2325547v2.1619914h-2.2325547z" fill="#208f2d" stroke="#000" stroke-width=".6" transform="translate(12.403081 13.837985)"/></svg>